<svg width="51" height="50" viewBox="0 0 51 50" fill="none" xmlns="http://www.w3.org/2000/svg">
<path d="M50.2002 24.9923C50.2001 20.2153 48.8306 15.5384 46.2538 11.5155C43.6771 7.49256 40.0011 4.29215 35.6612 2.29326C31.3213 0.294375 26.4993 -0.419247 21.7662 0.236911C17.0332 0.89307 12.5874 2.89152 8.9553 5.99559C5.32324 9.09966 2.65708 13.1793 1.27259 17.7514C-0.111908 22.3235 -0.156743 27.1964 1.14339 31.7932C2.44352 36.39 5.03416 40.5179 8.6085 43.6883C12.1828 46.8586 16.5911 48.9385 21.3113 49.6816V32.231H14.952V24.9923H21.3002V19.4828C21.3002 13.2216 25.0335 9.75958 30.7446 9.75958C32.6195 9.78581 34.4899 9.94916 36.3409 10.2483V16.3984H33.1891C30.0817 16.3984 29.115 18.3275 29.115 20.301V24.9923H36.0483L34.9372 32.2162H29.1076V49.6816C34.9876 48.7499 40.3422 45.7516 44.2086 41.2259C48.075 36.7002 50.1995 30.944 50.2002 24.9923Z" fill="#4676ED"/>
<path d="M34.9299 32.2309L36.041 25.007H29.1077V20.301C29.1077 18.3275 30.0744 16.3984 33.1818 16.3984H36.3336V10.2483C34.4826 9.9491 32.6122 9.78575 30.7373 9.75952C25.0262 9.75952 21.2929 13.2215 21.2929 19.4827V24.9922H14.9521V32.2309H21.3003V49.6963C23.8895 50.1011 26.5259 50.1011 29.1151 49.6963V32.2309H34.9299Z" fill="white"/>
</svg>
