<svg width="50" height="50" viewBox="0 0 50 50" fill="none" xmlns="http://www.w3.org/2000/svg">
<rect x="9.0415" y="9.0415" width="31.6456" height="31.6455" fill="white"/>
<path d="M25 4.54505e-06C20.0548 5.44343e-06 15.2207 1.46659 11.1092 4.21429C6.99764 6.96199 3.79333 10.8674 1.90159 15.4364C0.00983979 20.0054 -0.484372 25.0329 0.48148 29.8828C1.44733 34.7327 3.82985 39.1873 7.32767 42.683C10.8255 46.1787 15.2815 48.5585 20.132 49.5214C24.9825 50.4843 30.0096 49.9871 34.5775 48.0926C39.1454 46.1981 43.0488 42.9915 45.7941 38.8783C48.5393 34.765 50.003 29.9301 50 24.9849C50 21.7026 49.3532 18.4524 48.0967 15.4201C46.8401 12.3878 44.9984 9.63284 42.6767 7.31258C40.3551 4.99232 37.599 3.15223 34.5659 1.89751C31.5329 0.642787 28.2823 -0.00197515 25 4.54505e-06ZM40.1899 31.0428C40.1899 33.4408 39.2373 35.7405 37.5416 37.4361C35.846 39.1317 33.5462 40.0844 31.1483 40.0844H19.0928C16.6948 40.0844 14.3951 39.1317 12.6994 37.4361C11.0038 35.7405 10.0512 33.4408 10.0512 31.0428V18.9873C10.0512 16.5894 11.0038 14.2896 12.6994 12.594C14.3951 10.8983 16.6948 9.94576 19.0928 9.94576H31.1483C33.5462 9.94576 35.846 10.8983 37.5416 12.594C39.2373 14.2896 40.1899 16.5894 40.1899 18.9873V31.0428ZM29.9427 25.0151C29.9427 25.9599 29.6626 26.8834 29.1377 27.669C28.6128 28.4546 27.8667 29.0668 26.9938 29.4284C26.1209 29.7899 25.1604 29.8845 24.2338 29.7002C23.3072 29.5159 22.456 29.0609 21.7879 28.3929C21.1198 27.7248 20.6649 26.8736 20.4806 25.947C20.2963 25.0203 20.3909 24.0598 20.7524 23.187C21.114 22.3141 21.7262 21.568 22.5118 21.0431C23.2974 20.5182 24.221 20.2381 25.1658 20.2381C26.4184 20.2538 27.6151 20.7594 28.4995 21.6466C29.384 22.5339 29.8858 23.7322 29.8975 24.9849L29.9427 25.0151ZM31.088 12.7185H19.0326C17.374 12.7185 15.7833 13.3773 14.6105 14.5502C13.4377 15.723 12.7788 17.3137 12.7788 18.9723V31.0277C12.7788 32.6863 13.4377 34.277 14.6105 35.4498C15.7833 36.6226 17.374 37.2815 19.0326 37.2815H31.088C32.7466 37.2815 34.3373 36.6226 35.5101 35.4498C36.6829 34.277 37.3418 32.6863 37.3418 31.0277V18.9723C37.3458 18.1447 37.1855 17.3245 36.8702 16.5593C36.5548 15.7941 36.0908 15.0991 35.5048 14.5146C34.9189 13.93 34.2228 13.4677 33.4569 13.1542C32.6909 12.8407 31.8704 12.6823 31.0428 12.6883L31.088 12.7185ZM25.1205 32.4593C23.6303 32.4593 22.1736 32.0174 20.9345 31.1894C19.6955 30.3615 18.7297 29.1848 18.1594 27.808C17.5891 26.4312 17.4399 24.9163 17.7307 23.4547C18.0214 21.9931 18.739 20.6506 19.7927 19.5968C20.8465 18.5431 22.189 17.8255 23.6506 17.5348C25.1122 17.244 26.6272 17.3932 28.0039 17.9635C29.3807 18.5338 30.5575 19.4995 31.3854 20.7386C32.2133 21.9777 32.6552 23.4344 32.6552 24.9246C32.6552 26.9229 31.8614 28.8394 30.4484 30.2524C29.0353 31.6655 27.1189 32.4593 25.1205 32.4593ZM33.0169 18.8065C32.6652 18.8065 32.3214 18.7022 32.029 18.5068C31.7365 18.3114 31.5086 18.0337 31.374 17.7088C31.2395 17.3839 31.2042 17.0264 31.2729 16.6814C31.3415 16.3365 31.5108 16.0196 31.7595 15.771C32.0082 15.5223 32.325 15.3529 32.67 15.2843C33.0149 15.2157 33.3724 15.2509 33.6973 15.3855C34.0223 15.5201 34.3 15.748 34.4954 16.0404C34.6907 16.3328 34.795 16.6766 34.795 17.0283C34.797 17.2624 34.7524 17.4945 34.6638 17.7112C34.5751 17.9278 34.4442 18.1246 34.2787 18.2902C34.1132 18.4557 33.9164 18.5866 33.6997 18.6752C33.4831 18.7639 33.2509 18.8085 33.0169 18.8065Z" fill="url(#paint0_linear_316_1489)"/>
<defs>
<linearGradient id="paint0_linear_316_1489" x1="7.32369" y1="7.30862" x2="42.6763" y2="42.6612" gradientUnits="userSpaceOnUse">
<stop stop-color="#FFE185"/>
<stop offset="0.21" stop-color="#FFBB36"/>
<stop offset="0.38" stop-color="#FF5176"/>
<stop offset="0.52" stop-color="#F63395"/>
<stop offset="0.74" stop-color="#A436D2"/>
<stop offset="1" stop-color="#5F4EED"/>
</linearGradient>
</defs>
</svg>
