<svg width="51" height="50" viewBox="0 0 51 50" fill="none" xmlns="http://www.w3.org/2000/svg">
<path d="M25.3999 50C39.207 50 50.3999 38.8071 50.3999 25C50.3999 11.1929 39.207 0 25.3999 0C11.5928 0 0.399902 11.1929 0.399902 25C0.399902 38.8071 11.5928 50 25.3999 50Z" fill="#DC4711"/>
<path d="M42.0592 25C42.0606 24.2842 41.851 23.5839 41.4566 22.9865C41.0622 22.3892 40.5005 21.9214 39.8417 21.6416C39.1828 21.3618 38.4561 21.2824 37.7524 21.4133C37.0487 21.5443 36.3992 21.8797 35.8851 22.3778C33.3925 20.5778 29.9592 19.4148 26.1369 19.2815L27.7962 11.4704L33.2221 12.6222C33.252 13.2523 33.5106 13.8499 33.9495 14.303C34.3883 14.7561 34.9772 15.0337 35.606 15.0837C36.2348 15.1338 36.8603 14.9529 37.3653 14.5749C37.8703 14.197 38.2202 13.6478 38.3494 13.0304C38.4786 12.413 38.3783 11.7697 38.0673 11.221C37.7563 10.6722 37.2558 10.2556 36.6598 10.0493C36.0637 9.84302 35.4128 9.8611 34.8291 10.1002C34.2454 10.3393 33.7689 10.783 33.4888 11.3482L27.4295 10.0593C27.346 10.0411 27.2597 10.04 27.1757 10.0559C27.0917 10.0718 27.0118 10.1044 26.9407 10.1519C26.8689 10.1984 26.8071 10.2587 26.7588 10.3293C26.7105 10.3999 26.6766 10.4793 26.6592 10.563L24.8073 19.2815C20.9258 19.3889 17.4369 20.5519 14.9147 22.3704C14.5316 22.0029 14.0728 21.7236 13.5705 21.5519C13.0682 21.3803 12.5344 21.3204 12.0065 21.3766C11.4786 21.4327 10.9694 21.6035 10.5144 21.877C10.0594 22.1505 9.66967 22.5201 9.37243 22.96C9.07519 23.3998 8.87761 23.8993 8.79354 24.4234C8.70947 24.9476 8.74095 25.4838 8.88573 25.9945C9.03051 26.5053 9.28511 26.9782 9.63174 27.3803C9.97837 27.7823 10.4087 28.1038 10.8925 28.3222C10.8357 28.6899 10.8073 29.0613 10.8073 29.4334C10.8073 35.0408 17.3369 39.5889 25.3888 39.5889C33.4406 39.5889 39.974 35.0408 39.974 29.4334C39.9744 29.0613 39.9459 28.6898 39.8888 28.3222C40.5331 28.0378 41.0812 27.5725 41.4664 26.9828C41.8516 26.3932 42.0575 25.7044 42.0592 25ZM17.0666 27.5926C17.0666 27.0799 17.2186 26.5786 17.5035 26.1523C17.7884 25.7259 18.1933 25.3936 18.667 25.1974C19.1408 25.0011 19.662 24.9498 20.165 25.0498C20.6679 25.1499 21.1298 25.3968 21.4924 25.7594C21.855 26.122 22.1019 26.5839 22.2019 27.0868C22.302 27.5897 22.2506 28.111 22.0544 28.5848C21.8582 29.0585 21.5259 29.4634 21.0995 29.7483C20.6732 30.0331 20.1719 30.1852 19.6592 30.1852C18.9735 30.1852 18.3157 29.9136 17.8298 29.4298C17.344 28.946 17.0695 28.2894 17.0666 27.6037V27.5926ZM31.5851 34.4741C29.8073 36.2482 26.3999 36.3852 25.3999 36.3852C24.3999 36.3852 20.9925 36.2482 19.2184 34.4741C19.0917 34.3474 19.0205 34.1755 19.0205 33.9963C19.0205 33.8171 19.0917 33.6453 19.2184 33.5185C19.3451 33.3918 19.517 33.3206 19.6962 33.3206C19.8754 33.3206 20.0473 33.3918 20.174 33.5185C21.2851 34.6297 23.6888 35.0371 25.3999 35.0371C27.111 35.0371 29.511 34.6408 30.6332 33.5185C30.7599 33.3923 30.9316 33.3216 31.1105 33.3219C31.2893 33.3223 31.4607 33.3937 31.5869 33.5204C31.7132 33.6471 31.7839 33.8188 31.7835 33.9976C31.7832 34.1765 31.7118 34.3479 31.5851 34.4741ZM31.1258 30.1963C30.6131 30.1963 30.1118 30.0443 29.6855 29.7594C29.2591 29.4745 28.9268 29.0696 28.7306 28.5959C28.5344 28.1221 28.483 27.6009 28.5831 27.0979C28.6831 26.595 28.93 26.1331 29.2926 25.7705C29.6552 25.4079 30.1171 25.161 30.62 25.061C31.1229 24.9609 31.6442 25.0122 32.118 25.2085C32.5917 25.4047 32.9966 25.737 33.2815 26.1634C33.5664 26.5897 33.7184 27.091 33.7184 27.6037C33.7199 27.9451 33.6539 28.2834 33.5243 28.5993C33.3946 28.9151 33.2039 29.2022 32.963 29.4442C32.7221 29.6861 32.4358 29.878 32.1205 30.009C31.8053 30.14 31.4672 30.2074 31.1258 30.2074V30.1963Z" fill="white"/>
</svg>
