<svg width="51" height="51" viewBox="0 0 51 51" fill="none" xmlns="http://www.w3.org/2000/svg">
<rect x="7.6001" y="11" width="37" height="30" fill="white"/>
<path d="M31.3948 23.3147C30.7258 23.234 30.048 23.3587 29.4516 23.6724C28.8552 23.9861 28.3684 24.4738 28.0559 25.0708C27.7434 25.6678 27.6199 26.3458 27.7019 27.0146C27.784 27.6835 28.0676 28.3115 28.5151 28.8153C28.9627 29.3191 29.5529 29.6747 30.2074 29.835C30.862 29.9953 31.5497 29.9526 32.1794 29.7125C32.8091 29.4725 33.3508 29.0466 33.7326 28.4913C34.1144 27.936 34.3181 27.2777 34.3167 26.6038C34.3479 26.1945 34.2963 25.7831 34.1652 25.3941C34.034 25.0051 33.826 24.6465 33.5533 24.3396C33.2807 24.0327 32.949 23.7838 32.5782 23.6077C32.2074 23.4316 31.8049 23.332 31.3948 23.3147Z" fill="#5865F2"/>
<path d="M20.5479 23.3148C19.8791 23.2373 19.2025 23.3649 18.608 23.6808C18.0134 23.9966 17.5289 24.4858 17.2188 25.0834C16.9087 25.681 16.7876 26.3588 16.8717 27.0268C16.9557 27.6948 17.2409 28.3215 17.6893 28.8237C18.1378 29.3259 18.7283 29.6798 19.3826 29.8386C20.0369 29.9974 20.724 29.9534 21.3528 29.7126C21.9815 29.4718 22.5222 29.0456 22.9031 28.4904C23.2839 27.9352 23.4869 27.2773 23.4852 26.604C23.5163 26.1934 23.4643 25.7808 23.3322 25.3908C23.2001 25.0008 22.9907 24.6415 22.7164 24.3344C22.4421 24.0273 22.1088 23.7787 21.7362 23.6035C21.3636 23.4283 20.9594 23.3301 20.5479 23.3148Z" fill="#5865F2"/>
<path d="M25.9036 0C22.5794 -6.07555e-07 19.2878 0.655034 16.2168 1.92761C13.1458 3.20019 10.3557 5.06538 8.00587 7.41665C5.65602 9.76792 3.79255 12.5592 2.52183 15.6309C1.25111 18.7026 0.598092 21.9947 0.600102 25.3189C0.600102 32.0298 3.26595 38.4659 8.01129 43.2112C12.7566 47.9565 19.1927 50.6224 25.9036 50.6224C32.5088 50.46 38.7889 47.722 43.4031 42.9929C48.0173 38.2639 50.6001 31.9184 50.6001 25.3112C50.6001 18.704 48.0173 12.3586 43.4031 7.6295C38.7889 2.90043 32.5088 0.1624 25.9036 0ZM42.1505 33.6565C39.6574 35.5097 36.8626 36.9175 33.8894 37.8176C33.223 36.9126 32.6295 35.956 32.1148 34.9568C33.0875 34.5954 34.0247 34.1447 34.9144 33.6106L34.2259 33.0904C31.6418 34.3068 28.8209 34.9375 25.9648 34.9375C23.1087 34.9375 20.2879 34.3068 17.7037 33.0904L17.0306 33.6106C17.9169 34.1367 18.8488 34.5822 19.8149 34.9416C19.309 35.9473 18.7205 36.9092 18.0555 37.8176C15.0816 36.9123 12.2867 35.4993 9.79445 33.6412C9.10644 27.0621 10.8177 20.4559 14.6134 15.0383C16.7589 14.0426 19.0279 13.3377 21.36 12.9425C21.6813 13.5238 21.9719 14.1052 22.2473 14.7171C24.7171 14.3499 27.2277 14.3499 29.6976 14.7171C29.9543 14.1095 30.2454 13.517 30.5696 12.9425C32.8939 13.3419 35.1566 14.0413 37.3009 15.023C41.107 20.4483 42.8288 27.0641 42.1505 33.6565Z" fill="#5865F2"/>
</svg>
