<svg width="50" height="50" viewBox="0 0 50 50" fill="none" xmlns="http://www.w3.org/2000/svg">
<path d="M25 50C38.8071 50 50 38.8071 50 25C50 11.1929 38.8071 0 25 0C11.1929 0 0 11.1929 0 25C0 38.8071 11.1929 50 25 50Z" fill="url(#paint0_linear_316_1471)"/>
<path d="M16.9111 26.8259L19.8741 35.037C19.8741 35.037 20.2445 35.8037 20.6445 35.8037C21.0445 35.8037 26.9408 29.6593 26.9408 29.6593L33.5259 16.9778L17.0259 24.7111L16.9111 26.8259Z" fill="#C8DAEA"/>
<path d="M16.9744 27.1184L10.8744 25.1258C10.8744 25.1258 10.1336 24.8296 10.3781 24.1592C10.4262 24.0222 10.5262 23.9036 10.8151 23.6999C12.167 22.7592 35.8374 14.2518 35.8374 14.2518C36.1784 14.1316 36.5454 14.1048 36.9003 14.174C36.9979 14.2053 37.0857 14.2613 37.1551 14.3366C37.2246 14.4119 37.2733 14.5039 37.2966 14.6036C37.338 14.7795 37.3555 14.9602 37.3485 15.1407C37.3485 15.2999 37.3262 15.4444 37.3114 15.674C37.167 17.9999 32.867 35.3592 32.867 35.3592C32.867 35.3592 32.6077 36.374 31.6818 36.4073C31.4549 36.4155 31.2287 36.3777 31.0167 36.2962C30.8048 36.2148 30.6115 36.0913 30.4485 35.9333C28.6336 34.3703 22.3596 30.1555 20.9744 29.2295C20.9432 29.2077 20.9169 29.1797 20.8971 29.1472C20.8773 29.1147 20.8646 29.0784 20.8596 29.0406C20.8411 28.9443 20.9485 28.8221 20.9485 28.8221C20.9485 28.8221 31.8707 19.1147 32.1596 18.0814C32.1818 18.0036 32.0966 17.9629 31.9818 17.9962C31.2411 18.2629 18.6818 26.2036 17.2929 27.0814C17.1914 27.1199 17.082 27.1327 16.9744 27.1184Z" fill="white"/>
<defs>
<linearGradient id="paint0_linear_316_1471" x1="25" y1="50" x2="25" y2="0" gradientUnits="userSpaceOnUse">
<stop stop-color="#1D93D2"/>
<stop offset="1" stop-color="#38B0E3"/>
</linearGradient>
</defs>
</svg>
