<svg width="51" height="50" viewBox="0 0 51 50" fill="none" xmlns="http://www.w3.org/2000/svg">
<path d="M25.7998 50C39.6069 50 50.7998 38.8071 50.7998 25C50.7998 11.1929 39.6069 0 25.7998 0C11.9927 0 0.799805 11.1929 0.799805 25C0.799805 38.8071 11.9927 50 25.7998 50Z" fill="#5A99EC"/>
<path d="M20.7477 39.3962C32.97 39.3962 39.6366 29.2814 39.6366 20.5074C39.6366 20.2222 39.6366 19.937 39.6366 19.6518C40.9353 18.7114 42.0565 17.5476 42.9478 16.2148C41.736 16.7492 40.4516 17.1012 39.1367 17.2592C40.5226 16.4287 41.5597 15.123 42.0552 13.5851C40.7528 14.3595 39.3272 14.9045 37.8404 15.1962C36.9294 14.2262 35.748 13.5523 34.4494 13.2617C33.1508 12.9712 31.7948 13.0776 30.5574 13.567C29.3199 14.0564 28.258 14.9062 27.5094 16.0064C26.7608 17.1066 26.3599 18.4063 26.3589 19.737C26.3567 20.2468 26.4139 20.7552 26.5293 21.2518C23.8899 21.1195 21.3078 20.4335 18.9507 19.2384C16.5937 18.0433 14.5143 16.3658 12.8478 14.3148C11.9979 15.7762 11.7373 17.5067 12.1193 19.1536C12.5012 20.8004 13.4969 22.2396 14.9033 23.1777C13.8489 23.1455 12.8177 22.861 11.8959 22.3481C11.894 22.3765 11.894 22.4049 11.8959 22.4333C11.8963 23.966 12.4269 25.4513 13.3977 26.6374C14.3684 27.8235 15.7195 28.6372 17.2219 28.9407C16.2448 29.206 15.2201 29.2453 14.2256 29.0555C14.6522 30.3728 15.4783 31.5246 16.5894 32.3509C17.7004 33.1772 19.0412 33.6371 20.4255 33.6666C18.0735 35.5108 15.17 36.5113 12.1811 36.5074C11.6526 36.5083 11.1244 36.4774 10.5996 36.4148C13.6347 38.3641 17.1665 39.3991 20.7737 39.3962" fill="white"/>
</svg>
